<?xml version="1.0" encoding="UTF-8"?>
<svg xmlns="http://www.w3.org/2000/svg" xmlns:xlink="http://www.w3.org/1999/xlink" width="805.2pt" height="334pt" viewBox="0 0 805.2 334" version="1.1">
<defs>
<clipPath id="clip1">
  <path d="M 0 0 L 805.199219 0 L 805.199219 276 L 0 276 Z M 0 0 "/>
</clipPath>
</defs>
<g id="surface1">
<g clip-path="url(#clip1)" clip-rule="nonzero">
<path style=" stroke:none;fill-rule:evenodd;fill:rgb(7.446289%,8.616638%,5.883789%);fill-opacity:1;" d="M 60.996094 -0.03125 L 743.613281 -0.03125 L 805.273438 61.96875 L 805.273438 213.648438 L 743.097656 275.484375 L 60.070313 275.484375 L 0.015625 210.027344 L 0.015625 61.023438 Z M 65.40625 10.605469 L 10.652344 65.429688 L 10.652344 205.886719 L 64.746094 264.84375 L 738.707031 264.84375 L 794.632813 209.226563 L 794.632813 66.359375 L 739.1875 10.605469 Z M 65.40625 10.605469 "/>
</g>
<path style=" stroke:none;fill-rule:evenodd;fill:rgb(31.37207%,69.334412%,31.762695%);fill-opacity:1;" d="M 120.769531 53.765625 L 120.769531 131.691406 L 136.265625 131.691406 C 141.738281 131.691406 146.375 131.132813 150.183594 130.023438 C 153.992188 128.867188 157.410156 125.8125 160.429688 120.863281 C 163.492188 115.863281 165.199219 108.136719 165.636719 97.539063 L 172.292969 97.539063 L 172.292969 174.535156 L 165.636719 174.535156 C 164.9375 159.914063 162.269531 150.246094 157.628906 145.617188 C 152.945313 140.945313 145.851563 138.628906 136.265625 138.628906 L 120.769531 138.628906 L 120.769531 221.734375 L 155.742188 221.734375 C 175.574219 221.734375 189.320313 217.292969 196.980469 208.5 C 204.640625 199.710938 209.195313 186.105469 210.636719 167.78125 L 217.203125 167.78125 L 215.542969 228.632813 L 63.03125 228.632813 L 63.03125 221.734375 L 90.34375 221.734375 L 90.34375 53.765625 L 63.03125 53.765625 L 63.03125 46.828125 L 209.238281 46.828125 L 212.171875 95.367188 L 205.648438 95.367188 C 203.414063 80.648438 198.863281 70.007813 191.945313 63.53125 C 184.984375 57.007813 173.472656 53.765625 157.320313 53.765625 Z M 302.566406 53.765625 L 302.566406 221.734375 L 341.175781 221.734375 C 348.617188 221.734375 354.480469 221.132813 358.773438 219.929688 C 363.019531 218.773438 367.222656 215.953125 371.378906 211.417969 C 375.539063 206.882813 378.734375 201.515625 381.011719 195.265625 C 383.285156 189.066406 385.695313 180.367188 388.230469 169.261719 L 394.273438 169.261719 L 389.546875 228.632813 L 245 228.632813 L 245 221.734375 L 272.054688 221.734375 L 272.054688 53.765625 L 245 53.765625 L 245 46.828125 L 331.195313 46.828125 L 331.195313 53.765625 Z M 494.824219 232.839844 C 472.585938 232.839844 453.71875 222.984375 438.222656 203.273438 C 422.683594 183.5625 414.933594 162.507813 414.933594 140.109375 C 414.933594 113.179688 423.078125 90.183594 439.363281 71.164063 C 455.644531 52.148438 474.554688 42.617188 496.09375 42.617188 C 516.359375 42.617188 534.527344 52.285156 550.59375 71.628906 C 566.703125 90.96875 574.714844 112.949219 574.714844 137.519531 C 574.714844 162.832031 566.65625 185.042969 550.550781 204.152344 C 534.441406 223.261719 515.878906 232.839844 494.824219 232.839844 Z M 495.347656 49.554688 C 485.9375 49.554688 477.488281 51.824219 470.003906 56.40625 C 462.519531 60.941406 457.441406 68.898438 454.769531 80.1875 C 452.054688 91.480469 450.699219 111.191406 450.699219 139.277344 C 450.699219 158.714844 451.488281 174.214844 453.019531 185.78125 C 454.550781 197.351563 458.445313 206.929688 464.75 214.515625 C 471.054688 222.105469 480.902344 225.902344 494.296875 225.902344 C 502.527344 225.902344 510.757813 223.632813 518.988281 219.007813 C 527.261719 214.378906 532.644531 205.355469 535.140625 191.84375 C 537.679688 178.332031 538.949219 157.554688 538.949219 129.511719 C 538.949219 104.160156 537.371094 86.621094 534.265625 76.949219 C 531.15625 67.28125 526.125 60.292969 519.25 55.988281 C 512.378906 51.683594 504.410156 49.554688 495.347656 49.554688 Z M 626.9375 221.734375 L 626.9375 53.765625 L 600.363281 53.765625 L 600.363281 46.828125 L 689.226563 46.828125 C 698.988281 46.828125 707.21875 47.382813 713.875 48.398438 C 720.527344 49.417969 726.960938 52.148438 733.089844 56.453125 C 739.261719 60.800781 743.683594 66.167969 746.398438 72.507813 C 749.070313 78.894531 750.425781 84.957031 750.425781 90.644531 C 750.425781 112.210938 734.710938 126.367188 703.367188 133.078125 L 703.367188 133.726563 C 738.738281 139.789063 756.46875 155.335938 756.46875 180.367188 C 756.46875 186.523438 754.847656 193 751.695313 199.800781 C 748.542969 206.648438 743.507813 212.527344 736.546875 217.523438 C 729.632813 222.472656 722.585938 225.574219 715.363281 226.78125 C 708.140625 228.027344 699.035156 228.632813 688.089844 228.632813 L 600.363281 228.632813 L 600.363281 221.734375 Z M 683.710938 53.765625 L 657.445313 53.765625 L 657.445313 130.070313 L 681.042969 130.070313 C 697.019531 130.070313 707.261719 126.785156 711.683594 120.167969 C 716.148438 113.597656 718.339844 103.1875 718.339844 88.980469 C 718.339844 77.875 716.894531 69.777344 714.003906 64.734375 C 711.070313 59.691406 707.394531 56.589844 702.886719 55.433594 C 698.421875 54.324219 692.03125 53.765625 683.710938 53.765625 Z M 680.78125 137.011719 L 657.445313 137.011719 L 657.445313 221.734375 L 681.566406 221.734375 C 690.542969 221.734375 697.675781 220.996094 703.019531 219.5625 C 708.355469 218.078125 712.910156 214.238281 716.675781 207.945313 C 720.441406 201.652344 722.324219 191.796875 722.324219 178.332031 C 722.324219 163.988281 719.476563 153.484375 713.785156 146.867188 C 708.140625 140.296875 697.109375 137.011719 680.78125 137.011719 Z M 680.78125 137.011719 "/>
<path style=" stroke:none;fill-rule:evenodd;fill:rgb(7.446289%,8.616638%,5.883789%);fill-opacity:1;" d="M 67.992188 333.1875 L 67.992188 290.691406 L 99.015625 290.691406 L 99.015625 295.707031 L 73.667969 295.707031 L 73.667969 308.71875 L 97.40625 308.71875 L 97.40625 313.707031 L 73.667969 313.707031 L 73.667969 328.167969 L 100.015625 328.167969 L 100.015625 333.1875 Z M 107.617188 333.1875 L 107.617188 290.691406 L 113.304688 290.691406 L 113.304688 328.167969 L 134.4375 328.167969 L 134.4375 333.1875 Z M 141.320313 333.1875 L 141.320313 290.691406 L 172.34375 290.691406 L 172.34375 295.707031 L 146.996094 295.707031 L 146.996094 308.71875 L 170.734375 308.71875 L 170.734375 313.707031 L 146.996094 313.707031 L 146.996094 328.167969 L 173.339844 328.167969 L 173.339844 333.1875 Z M 180.945313 333.1875 L 180.945313 290.691406 L 186.628906 290.691406 L 186.628906 311.765625 L 207.941406 290.691406 L 215.632813 290.691406 L 197.628906 307.90625 L 216.421875 333.1875 L 208.929688 333.1875 L 193.652344 311.675781 L 186.628906 318.464844 L 186.628906 333.1875 Z M 232.089844 333.1875 L 232.089844 295.707031 L 217.953125 295.707031 L 217.953125 290.691406 L 251.960938 290.691406 L 251.960938 295.707031 L 237.765625 295.707031 L 237.765625 333.1875 Z M 257.875 333.1875 L 257.875 290.691406 L 276.902344 290.691406 C 280.726563 290.691406 283.632813 291.078125 285.621094 291.839844 C 287.613281 292.601563 289.199219 293.945313 290.398438 295.878906 C 291.589844 297.816406 292.179688 299.953125 292.179688 302.289063 C 292.179688 305.304688 291.199219 307.839844 289.21875 309.90625 C 287.25 311.972656 284.203125 313.289063 280.085938 313.851563 C 281.597656 314.566406 282.734375 315.269531 283.515625 315.972656 C 285.175781 317.476563 286.742188 319.367188 288.230469 321.621094 L 295.695313 333.1875 L 288.550781 333.1875 L 282.875 324.34375 C 281.21875 321.800781 279.847656 319.839844 278.769531 318.492188 C 277.699219 317.140625 276.742188 316.191406 275.890625 315.652344 C 275.042969 315.109375 274.183594 314.734375 273.304688 314.515625 C 272.65625 314.386719 271.605469 314.320313 270.136719 314.320313 L 263.550781 314.320313 L 263.550781 333.1875 Z M 263.550781 309.453125 L 275.761719 309.453125 C 278.351563 309.453125 280.390625 309.183594 281.847656 308.648438 C 283.316406 308.117188 284.425781 307.265625 285.183594 306.097656 C 285.941406 304.929688 286.320313 303.664063 286.320313 302.289063 C 286.320313 300.277344 285.59375 298.628906 284.113281 297.332031 C 282.644531 296.035156 280.316406 295.390625 277.128906 295.390625 L 263.550781 295.390625 Z M 299.351563 312.488281 C 299.351563 305.433594 301.257813 299.914063 305.085938 295.925781 C 308.914063 291.9375 313.847656 289.941406 319.902344 289.941406 C 323.859375 289.941406 327.4375 290.878906 330.613281 292.75 C 333.789063 294.628906 336.21875 297.242188 337.886719 300.59375 C 339.554688 303.9375 340.386719 307.75 340.386719 311.992188 C 340.386719 316.308594 339.515625 320.164063 337.757813 323.558594 C 336 326.964844 333.511719 329.535156 330.292969 331.289063 C 327.066406 333.039063 323.601563 333.910156 319.871094 333.910156 C 315.828125 333.910156 312.21875 332.949219 309.042969 331.011719 C 305.855469 329.082031 303.445313 326.4375 301.808594 323.09375 C 300.171875 319.761719 299.351563 316.21875 299.351563 312.488281 Z M 305.207031 312.578125 C 305.207031 317.703125 306.59375 321.726563 309.371094 324.675781 C 312.160156 327.625 315.648438 329.101563 319.84375 329.101563 C 324.121094 329.101563 327.636719 327.617188 330.394531 324.636719 C 333.152344 321.660156 334.539063 317.4375 334.539063 311.964844 C 334.539063 308.511719 333.941406 305.492188 332.761719 302.914063 C 331.582031 300.328125 329.855469 298.332031 327.585938 296.90625 C 325.308594 295.488281 322.761719 294.777344 319.933594 294.777344 C 315.90625 294.777344 312.449219 296.144531 309.550781 298.882813 C 306.65625 301.613281 305.207031 306.1875 305.207031 312.578125 Z M 345.980469 312.488281 C 345.980469 305.433594 347.886719 299.914063 351.714844 295.925781 C 355.542969 291.9375 360.476563 289.941406 366.53125 289.941406 C 370.488281 289.941406 374.066406 290.878906 377.242188 292.75 C 380.421875 294.628906 382.847656 297.242188 384.515625 300.59375 C 386.183594 303.9375 387.015625 307.75 387.015625 311.992188 C 387.015625 316.308594 386.144531 320.164063 384.386719 323.558594 C 382.628906 326.964844 380.140625 329.535156 376.921875 331.289063 C 373.695313 333.039063 370.230469 333.910156 366.5 333.910156 C 362.453125 333.910156 358.847656 332.949219 355.671875 331.011719 C 352.484375 329.082031 350.074219 326.4375 348.4375 323.09375 C 346.800781 319.761719 345.980469 316.21875 345.980469 312.488281 Z M 351.835938 312.578125 C 351.835938 317.703125 353.222656 321.726563 356 324.675781 C 358.789063 327.625 362.277344 329.101563 366.472656 329.101563 C 370.75 329.101563 374.265625 327.617188 377.023438 324.636719 C 379.78125 321.660156 381.167969 317.4375 381.167969 311.964844 C 381.167969 308.511719 380.570313 305.492188 379.390625 302.914063 C 378.210938 300.328125 376.484375 298.332031 374.214844 296.90625 C 371.9375 295.488281 369.390625 294.777344 366.5625 294.777344 C 362.535156 294.777344 359.078125 296.144531 356.179688 298.882813 C 353.285156 301.613281 351.835938 306.1875 351.835938 312.578125 Z M 394.097656 333.1875 L 394.097656 290.691406 L 410.203125 290.691406 C 413.480469 290.691406 416.109375 291.125 418.085938 291.976563 C 420.074219 292.839844 421.625 294.164063 422.742188 295.957031 C 423.859375 297.738281 424.429688 299.605469 424.429688 301.566406 C 424.429688 303.375 423.933594 305.089844 422.933594 306.6875 C 421.941406 308.292969 420.4375 309.589844 418.425781 310.578125 C 421.023438 311.332031 423.011719 312.617188 424.410156 314.425781 C 425.808594 316.25 426.507813 318.394531 426.507813 320.871094 C 426.507813 322.859375 426.078125 324.707031 425.230469 326.417969 C 424.382813 328.128906 423.332031 329.449219 422.082031 330.375 C 420.835938 331.308594 419.265625 332 417.386719 332.472656 C 415.507813 332.949219 413.199219 333.1875 410.460938 333.1875 Z M 399.78125 308.550781 L 409.0625 308.550781 C 411.570313 308.550781 413.378906 308.382813 414.480469 308.054688 C 415.917969 307.628906 417.007813 306.929688 417.738281 305.9375 C 418.464844 304.949219 418.835938 303.714844 418.835938 302.226563 C 418.835938 300.824219 418.496094 299.578125 417.816406 298.507813 C 417.128906 297.429688 416.148438 296.695313 414.890625 296.300781 C 413.621094 295.90625 411.441406 295.707031 408.355469 295.707031 L 399.78125 295.707031 Z M 399.78125 328.167969 L 410.460938 328.167969 C 412.300781 328.167969 413.589844 328.101563 414.332031 327.972656 C 415.636719 327.734375 416.726563 327.347656 417.605469 326.804688 C 418.488281 326.269531 419.207031 325.480469 419.773438 324.449219 C 420.332031 323.410156 420.625 322.222656 420.625 320.871094 C 420.625 319.285156 420.214844 317.910156 419.394531 316.730469 C 418.578125 315.566406 417.4375 314.742188 415.980469 314.269531 C 414.527344 313.804688 412.433594 313.566406 409.703125 313.566406 L 399.78125 313.566406 Z M 431.425781 321.125 L 436.550781 320.433594 C 436.679688 323.679688 437.300781 325.90625 438.390625 327.101563 C 439.488281 328.300781 440.996094 328.894531 442.925781 328.894531 C 444.355469 328.894531 445.582031 328.574219 446.613281 327.921875 C 447.652344 327.28125 448.359375 326.402344 448.75 325.292969 C 449.140625 324.171875 449.339844 322.402344 449.339844 319.96875 L 449.339844 290.691406 L 455.015625 290.691406 L 455.015625 319.652344 C 455.015625 323.203125 454.585938 325.964844 453.714844 327.914063 C 452.847656 329.863281 451.464844 331.347656 449.589844 332.375 C 447.699219 333.394531 445.492188 333.910156 442.953125 333.910156 C 439.1875 333.910156 436.308594 332.839844 434.300781 330.691406 C 432.304688 328.546875 431.34375 325.363281 431.425781 321.125 Z M 464.417969 333.1875 L 464.417969 290.691406 L 495.4375 290.691406 L 495.4375 295.707031 L 470.089844 295.707031 L 470.089844 308.71875 L 493.832031 308.71875 L 493.832031 313.707031 L 470.089844 313.707031 L 470.089844 328.167969 L 496.4375 328.167969 L 496.4375 333.1875 Z M 504.042969 333.1875 L 504.042969 290.691406 L 509.726563 290.691406 L 509.726563 311.765625 L 531.039063 290.691406 L 538.730469 290.691406 L 520.726563 307.90625 L 539.519531 333.1875 L 532.027344 333.1875 L 516.75 311.675781 L 509.726563 318.464844 L 509.726563 333.1875 Z M 555.1875 333.1875 L 555.1875 295.707031 L 541.050781 295.707031 L 541.050781 290.691406 L 575.058594 290.691406 L 575.058594 295.707031 L 560.859375 295.707031 L 560.859375 333.1875 Z M 581.855469 290.691406 L 587.527344 290.691406 L 587.527344 333.1875 L 581.855469 333.1875 Z M 633.6875 333.1875 L 633.6875 329.300781 C 631.71875 332.355469 628.820313 333.878906 624.996094 333.878906 C 622.515625 333.878906 620.238281 333.207031 618.160156 331.851563 C 616.082031 330.503906 614.472656 328.617188 613.324219 326.183594 C 612.1875 323.757813 611.617188 320.976563 611.617188 317.820313 C 611.617188 314.753906 612.136719 311.964844 613.164063 309.460938 C 614.203125 306.957031 615.753906 305.039063 617.820313 303.714844 C 619.890625 302.375 622.207031 301.703125 624.765625 301.703125 C 626.632813 301.703125 628.300781 302.097656 629.761719 302.882813 C 631.230469 303.664063 632.417969 304.679688 633.335938 305.9375 L 633.335938 290.691406 L 638.574219 290.691406 L 638.574219 333.1875 Z M 617.03125 317.820313 C 617.03125 321.769531 617.871094 324.71875 619.550781 326.667969 C 621.226563 328.617188 623.207031 329.597656 625.496094 329.597656 C 627.792969 329.597656 629.75 328.65625 631.359375 326.796875 C 632.96875 324.933594 633.777344 322.085938 633.777344 318.257813 C 633.777344 314.042969 632.957031 310.957031 631.320313 308.984375 C 629.679688 307.007813 627.664063 306.027344 625.253906 306.027344 C 622.917969 306.027344 620.957031 306.976563 619.390625 308.867188 C 617.820313 310.753906 617.03125 313.746094 617.03125 317.820313 Z M 648.355469 327.242188 L 654.359375 327.242188 L 654.359375 333.1875 L 648.355469 333.1875 Z M 661.550781 317.789063 C 661.550781 312.089844 663.152344 307.867188 666.359375 305.128906 C 669.027344 302.851563 672.285156 301.703125 676.128906 301.703125 C 680.40625 301.703125 683.902344 303.089844 686.609375 305.867188 C 689.328125 308.640625 690.675781 312.46875 690.675781 317.355469 C 690.675781 321.324219 690.078125 324.441406 688.878906 326.707031 C 687.679688 328.980469 685.929688 330.742188 683.640625 332 C 681.34375 333.257813 678.847656 333.878906 676.128906 333.878906 C 671.785156 333.878906 668.265625 332.503906 665.578125 329.734375 C 662.890625 326.972656 661.550781 322.996094 661.550781 317.789063 Z M 666.96875 317.789063 C 666.96875 321.738281 667.835938 324.6875 669.574219 326.648438 C 671.3125 328.617188 673.503906 329.597656 676.128906 329.597656 C 678.746094 329.597656 680.925781 328.605469 682.664063 326.636719 C 684.394531 324.667969 685.261719 321.660156 685.261719 317.625 C 685.261719 313.816406 684.394531 310.925781 682.644531 308.964844 C 680.894531 307.007813 678.726563 306.027344 676.128906 306.027344 C 673.503906 306.027344 671.3125 307.007813 669.574219 308.957031 C 667.835938 310.90625 666.96875 313.851563 666.96875 317.789063 Z M 698.351563 327.242188 L 704.355469 327.242188 L 704.355469 333.1875 L 698.351563 333.1875 Z M 711.546875 317.789063 C 711.546875 312.089844 713.148438 307.867188 716.355469 305.128906 C 719.023438 302.851563 722.277344 301.703125 726.125 301.703125 C 730.402344 301.703125 733.898438 303.089844 736.605469 305.867188 C 739.324219 308.640625 740.671875 312.46875 740.671875 317.355469 C 740.671875 321.324219 740.074219 324.441406 738.875 326.707031 C 737.675781 328.980469 735.925781 330.742188 733.640625 332 C 731.339844 333.257813 728.84375 333.878906 726.125 333.878906 C 721.78125 333.878906 718.261719 332.503906 715.574219 329.734375 C 712.886719 326.972656 711.546875 322.996094 711.546875 317.789063 Z M 716.964844 317.789063 C 716.964844 321.738281 717.832031 324.6875 719.570313 326.648438 C 721.308594 328.617188 723.5 329.597656 726.125 329.597656 C 728.742188 329.597656 730.921875 328.605469 732.660156 326.636719 C 734.390625 324.667969 735.257813 321.660156 735.257813 317.625 C 735.257813 313.816406 734.390625 310.925781 732.640625 308.964844 C 730.890625 307.007813 728.722656 306.027344 726.125 306.027344 C 723.5 306.027344 721.308594 307.007813 719.570313 308.957031 C 717.832031 310.90625 716.964844 313.851563 716.964844 317.789063 Z M 748.347656 327.242188 L 754.351563 327.242188 L 754.351563 333.1875 L 748.347656 333.1875 Z M 748.347656 333.1875 L 748.347656 327.242188 Z M 748.347656 333.1875 "/>
</g>
</svg>
